<?xml version="1.0" encoding="UTF-8"?>
<!DOCTYPE svg PUBLIC "-//W3C//DTD SVG 1.1//EN" "http://www.w3.org/Graphics/SVG/1.1/DTD/svg11.dtd">
<!-- Creator: CorelDRAW -->
<svg xmlns="http://www.w3.org/2000/svg" xml:space="preserve" width="2048px" height="2048px" style="shape-rendering:geometricPrecision; text-rendering:geometricPrecision; image-rendering:optimizeQuality; fill-rule:evenodd; clip-rule:evenodd"
viewBox="0 0 2048 2048"
 xmlns:xlink="http://www.w3.org/1999/xlink">
 <defs>
  <style type="text/css">
   <![CDATA[
    .fil2 {fill:none}
    .fil1 {fill:#424242}
    .fil0 {fill:#757575}
    .fil5 {fill:#F9A825}
    .fil4 {fill:#FBC02D}
    .fil3 {fill:#FDD835}
   ]]>
  </style>
   <clipPath id="id0">
    <path d="M1024 0c565.539,0 1024,458.461 1024,1024 0,565.539 -458.461,1024 -1024,1024 -565.539,0 -1024,-458.461 -1024,-1024 0,-565.539 458.461,-1024 1024,-1024z"/>
   </clipPath>
 </defs>
 <g id="Layer_x0020_1">
  <metadata id="CorelCorpID_0Corel-Layer"/>
  <path class="fil0" d="M1024 0c565.539,0 1024,458.461 1024,1024 0,565.539 -458.461,1024 -1024,1024 -565.539,0 -1024,-458.461 -1024,-1024 0,-565.539 458.461,-1024 1024,-1024z"/>
  <g style="clip-path:url(#id0)">
   <g id="_341213056">
    <g>
     <polygon id="_3384352081" class="fil1" points="1183.22,599.341 2319.1,1735.22 2317.62,1738.9 2316.1,1742.59 2314.53,1746.3 2312.91,1750.03 2311.25,1753.78 2309.54,1757.53 2307.79,1761.3 2306,1765.07 2304.16,1768.85 2302.29,1772.62 2300.37,1776.4 2298.41,1780.17 2296.41,1783.94 2294.37,1787.7 2292.29,1791.45 2290.17,1795.19 2288.02,1798.91 2285.82,1802.61 2283.6,1806.29 2281.33,1809.95 2279.03,1813.59 2276.69,1817.2 2274.32,1820.77 2271.92,1824.32 2269.48,1827.83 2267.01,1831.3 2264.51,1834.73 2261.97,1838.12 2259.41,1841.47 2256.81,1844.77 2254.19,1848.01 2251.53,1851.21 1115.65,715.328 1118.31,712.132 1120.93,708.884 1123.53,705.586 1126.09,702.241 1128.63,698.852 1131.13,695.419 1133.6,691.947 1136.04,688.437 1138.44,684.892 1140.81,681.315 1143.15,677.708 1145.45,674.072 1147.71,670.412 1149.94,666.729 1152.14,663.026 1154.29,659.305 1156.41,655.568 1158.49,651.819 1160.53,648.058 1162.53,644.291 1164.49,640.517 1166.41,636.741 1168.28,632.963 1170.12,629.188 1171.91,625.417 1173.66,621.651 1175.37,617.895 1177.03,614.152 1178.64,610.423 1180.22,606.709 1181.74,603.015 "/>
     <polygon id="_338435184" class="fil1" points="1254.07,830.956 2389.95,1966.84 2400.38,1978.47 2410.7,1990.4 2420.88,2002.62 2430.91,2015.11 2440.77,2027.86 2450.46,2040.86 2459.96,2054.08 2469.25,2067.52 2478.32,2081.16 2487.16,2094.98 2495.75,2108.96 2504.08,2123.11 2512.14,2137.38 2519.9,2151.79 2527.36,2166.3 2534.51,2180.9 2541.32,2195.59 2547.79,2210.33 2553.9,2225.13 2559.64,2239.96 1423.76,1104.07 1418.02,1089.25 1411.91,1074.45 1405.44,1059.7 1398.63,1045.02 1391.48,1030.42 1384.02,1015.91 1376.25,1001.5 1368.2,987.223 1359.87,973.081 1351.28,959.094 1342.44,945.275 1333.37,931.639 1324.08,918.201 1314.58,904.978 1304.89,891.982 1295.03,879.23 1285,866.736 1274.82,854.515 1264.5,842.584 "/>
     <polygon id="_338434944" class="fil1" points="884.708,716.083 2020.59,1851.97 2020.53,1851.9 884.645,716.019 "/>
     <polygon id="_338435280" class="fil1" points="1457.54,1316.46 2593.42,2452.34 2592.7,2458.81 2591.85,2465.25 2590.88,2471.64 2589.77,2477.98 2588.53,2484.27 2587.17,2490.52 2585.66,2496.72 2584.03,2502.86 2582.25,2508.96 2580.34,2515 2578.29,2520.98 2576.1,2526.91 2573.77,2532.77 2571.29,2538.58 2568.68,2544.33 2565.91,2550.01 2563,2555.63 2559.94,2561.18 2556.73,2566.67 2553.37,2572.09 2549.86,2577.43 2546.19,2582.71 2542.37,2587.91 2538.39,2593.04 2534.26,2598.09 2529.96,2603.07 2525.51,2607.96 2520.89,2612.78 2516.11,2617.51 2511.16,2622.17 2506.05,2626.73 2500.78,2631.21 1364.9,1495.33 1370.17,1490.85 1375.28,1486.28 1380.23,1481.63 1385.01,1476.9 1389.62,1472.08 1394.08,1467.18 1398.37,1462.21 1402.51,1457.16 1406.49,1452.03 1410.31,1446.83 1413.98,1441.55 1417.49,1436.2 1420.85,1430.79 1424.06,1425.3 1427.12,1419.75 1430.03,1414.13 1432.8,1408.44 1435.41,1402.7 1437.89,1396.89 1440.22,1391.02 1442.41,1385.1 1444.46,1379.11 1446.37,1373.08 1448.14,1366.98 1449.78,1360.84 1451.28,1354.64 1452.65,1348.39 1453.89,1342.1 1455,1335.75 1455.97,1329.36 1456.82,1322.93 "/>
     <polygon id="_338434992" class="fil1" points="1364.9,1495.33 2500.78,2631.21 2493.22,2637.25 2485.33,2643.11 2477.12,2648.79 2468.58,2654.28 2459.7,2659.58 2450.49,2664.68 2440.93,2669.59 2431.03,2674.3 2420.77,2678.79 2410.17,2683.08 2399.2,2687.15 2387.88,2691.01 2376.2,2694.64 2364.14,2698.04 2351.72,2701.21 2338.92,2704.15 2325.74,2706.85 2312.19,2709.3 2298.24,2711.51 2283.91,2713.46 2269.18,2715.16 2254.06,2716.6 2238.54,2717.78 2222.62,2718.68 2206.29,2719.32 2189.54,2719.68 2172.39,2719.75 2154.81,2719.55 2136.82,2719.05 2118.4,2718.26 2099.55,2717.18 2080.27,2715.79 944.387,1579.91 963.668,1581.3 982.516,1582.38 1000.94,1583.17 1018.93,1583.66 1036.51,1583.87 1053.66,1583.79 1070.4,1583.44 1086.74,1582.8 1102.66,1581.89 1118.18,1580.72 1133.3,1579.28 1148.03,1577.58 1162.36,1575.63 1176.3,1573.42 1189.86,1570.97 1203.04,1568.27 1215.84,1565.33 1228.26,1562.16 1240.32,1558.76 1252,1555.12 1263.32,1551.27 1274.29,1547.2 1284.89,1542.91 1295.14,1538.41 1305.05,1533.71 1314.61,1528.8 1323.82,1523.7 1332.7,1518.39 1341.24,1512.9 1349.45,1507.23 1357.34,1501.37 "/>
     <polygon id="_338435784" class="fil1" points="944.387,1579.91 2080.27,2715.79 2068.63,2714.79 2057.21,2713.64 2046.02,2712.34 2035.05,2710.89 2024.3,2709.3 2013.76,2707.57 2003.45,2705.69 1993.34,2703.67 1983.46,2701.52 1973.78,2699.23 1964.32,2696.81 1955.06,2694.25 1946.01,2691.57 1937.17,2688.75 1928.53,2685.81 1920.1,2682.74 1911.87,2679.55 1903.83,2676.23 1896,2672.8 1888.36,2669.25 1880.92,2665.58 1873.67,2661.8 1866.61,2657.9 1859.75,2653.89 1853.07,2649.77 1846.58,2645.55 1840.28,2641.22 1834.16,2636.78 1828.22,2632.25 1822.47,2627.61 1816.89,2622.87 681.011,1486.99 686.585,1491.73 692.339,1496.36 698.275,1500.9 704.395,1505.34 710.698,1509.67 717.187,1513.89 723.864,1518.01 730.73,1522.02 737.787,1525.91 745.036,1529.7 752.479,1533.37 760.117,1536.92 767.951,1540.35 775.985,1543.66 784.217,1546.86 792.653,1549.92 801.29,1552.87 810.132,1555.68 819.18,1558.37 828.435,1560.92 837.899,1563.35 847.575,1565.64 857.463,1567.79 867.564,1569.81 877.881,1571.68 888.414,1573.42 899.166,1575.01 910.137,1576.46 921.33,1577.76 932.746,1578.91 "/>
     <polygon id="_338435904" class="fil1" points="893.309,724.621 2029.19,1860.5 2028.1,1859.46 2027.01,1858.41 2025.93,1857.35 2024.85,1856.29 2023.78,1855.22 2022.71,1854.14 2021.65,1853.06 2020.59,1851.97 884.708,716.083 885.766,717.173 886.829,718.257 887.897,719.334 888.969,720.406 890.048,721.47 891.129,722.528 892.216,723.578 "/>
     <polygon id="_338436288" class="fil1" points="1423.76,1104.07 2559.64,2239.96 2562.13,2246.73 2564.54,2253.5 2566.87,2260.28 2569.12,2267.06 2571.28,2273.84 2573.36,2280.63 2575.35,2287.41 2577.25,2294.18 2579.07,2300.96 2580.8,2307.72 2582.43,2314.48 2583.97,2321.23 2585.42,2327.97 2586.78,2334.7 2588.03,2341.42 2589.19,2348.12 2590.25,2354.81 2591.21,2361.48 2592.07,2368.13 2592.83,2374.76 2593.48,2381.37 2594.03,2387.96 2594.47,2394.53 2594.8,2401.07 2595.02,2407.58 2595.14,2414.07 2595.14,2420.53 2595.03,2426.96 2594.8,2433.35 2594.46,2439.72 2594,2446.05 2593.42,2452.34 1457.54,1316.46 1458.12,1310.16 1458.58,1303.84 1458.92,1297.47 1459.14,1291.08 1459.26,1284.65 1459.26,1278.19 1459.14,1271.7 1458.92,1265.19 1458.59,1258.65 1458.15,1252.08 1457.6,1245.49 1456.95,1238.88 1456.19,1232.25 1455.33,1225.59 1454.37,1218.92 1453.31,1212.24 1452.15,1205.53 1450.89,1198.82 1449.54,1192.09 1448.09,1185.35 1446.55,1178.6 1444.92,1171.84 1443.19,1165.07 1441.37,1158.3 1439.47,1151.52 1437.48,1144.74 1435.4,1137.96 1433.23,1131.18 1430.99,1124.4 1428.66,1117.62 1426.25,1110.84 "/>
     <polygon id="_338435712" class="fil1" points="1193.75,479.873 2329.63,1615.76 2330.63,1616.99 2331.57,1618.27 2332.47,1619.61 2333.31,1621 2334.1,1622.44 2334.84,1623.94 2335.52,1625.48 2336.16,1627.07 2336.74,1628.71 2337.28,1630.39 2337.76,1632.13 2338.2,1633.9 2338.59,1635.73 2338.92,1637.59 2339.21,1639.5 2339.45,1641.45 2339.64,1643.44 2339.78,1645.47 2339.87,1647.54 2339.91,1649.65 2339.91,1651.8 2339.86,1653.98 2339.76,1656.2 2339.62,1658.46 2339.43,1660.75 2339.19,1663.07 2338.91,1665.43 2338.58,1667.81 1202.7,531.932 1203.03,529.544 1203.31,527.189 1203.55,524.866 1203.74,522.576 1203.88,520.321 1203.98,518.1 1204.03,515.917 1204.03,513.769 1203.99,511.66 1203.9,509.589 1203.75,507.558 1203.57,505.567 1203.33,503.617 1203.04,501.708 1202.7,499.843 1202.32,498.02 1201.88,496.244 1201.4,494.511 1200.86,492.826 1200.28,491.188 1199.64,489.597 1198.95,488.054 1198.22,486.561 1197.43,485.119 1196.59,483.729 1195.69,482.39 1194.75,481.105 "/>
     <polygon id="_338435952" class="fil1" points="1202.7,531.932 2338.58,1667.81 2338.31,1669.58 2338.02,1671.37 2337.7,1673.2 2337.36,1675.04 2337,1676.92 2336.62,1678.82 2336.21,1680.75 2335.78,1682.7 2335.33,1684.67 2334.86,1686.67 2334.36,1688.69 2333.84,1690.73 2333.3,1692.8 2332.74,1694.88 2332.15,1696.99 2331.55,1699.11 2330.92,1701.25 2330.28,1703.42 2329.61,1705.59 2328.92,1707.79 2328.21,1710 2327.48,1712.23 2326.73,1714.47 2325.96,1716.73 2325.17,1719 2324.36,1721.28 2323.53,1723.58 2322.69,1725.89 2321.82,1728.21 2320.93,1730.54 2320.02,1732.87 2319.1,1735.22 1183.22,599.341 1184.14,596.992 1185.05,594.654 1185.94,592.323 1186.8,590.005 1187.65,587.697 1188.48,585.401 1189.29,583.117 1190.08,580.847 1190.85,578.589 1191.6,576.347 1192.33,574.119 1193.04,571.907 1193.73,569.711 1194.4,567.533 1195.04,565.372 1195.67,563.229 1196.27,561.104 1196.86,559 1197.42,556.915 1197.96,554.852 1198.48,552.808 1198.97,550.789 1199.45,548.79 1199.9,546.815 1200.33,544.864 1200.74,542.939 1201.12,541.037 1201.48,539.162 1201.82,537.313 1202.14,535.492 1202.43,533.698 "/>
    </g>
    <path id="_341212672" class="fil1" d="M1183.22 599.341c-15.5114,39.0555 -39.1016,82.1847 -67.565,115.987 1.56142,0.896457 3.12402,1.81299 4.68898,2.74488l2.31024 1.38662 0.137008 0.0826772 0.138189 0.0838583 0.137008 0.0826772 0.138189 0.0838583 0.137008 0.0826772 0.137008 0.0838583 0.138189 0.0838583 0.137008 0.0838583 0.138189 0.0826772 0.137008 0.0838583 0.138189 0.0838583 0.137008 0.0838583 0.138189 0.0838583c114.959,70.0796 240.161,225.236 299.32,383.529 26.9776,72.1867 40.5662,145.454 33.7819,212.382 -7.02284,69.293 -35.4591,131.538 -92.6457,178.876 -78.9201,65.3256 -212.528,100.977 -420.509,84.58 -125.367,-9.88465 -212.159,-45.678 -268.772,-97.7587 -57.7347,-53.1083 -83.6079,-122.249 -86.5938,-197.895 -2.88662,-73.1634 15.9402,-152.28 47.9752,-228.275 58.2414,-138.164 161.15,-267.412 256.312,-331.362 -2.91851,-2.77205 -5.78504,-5.62205 -8.60079,-8.5382l-0.0625985 -0.0637796c-48.7843,-50.5524 -114.993,-167.739 -74.7721,-225.197 31.6051,-45.1028 77.2879,-23.4614 116.805,-4.69134 22.7563,10.8071 47.1189,22.3772 66.7016,19.9736 13.448,-2.20748 33.4925,-8.37638 55.0559,-15.013 44.4024,-13.6642 94.63,-29.1225 127.39,-22.0004 4.9252,1.07126 9.38977,3.2315 13.4008,6.40867 13.1941,10.448 17.2276,30.7984 13.4705,56.4331 -2.7378,18.6791 -9.51142,42.3083 -19.4799,67.4091z"/>
   </g>
  </g>
  <path class="fil2" d="M1024 0c565.539,0 1024,458.461 1024,1024 0,565.539 -458.461,1024 -1024,1024 -565.539,0 -1024,-458.461 -1024,-1024 0,-565.539 458.461,-1024 1024,-1024z"/>
  <path class="fil3" d="M1183.22 599.463c-15.5114,39.0555 -39.1016,82.1847 -67.565,115.987 117.308,67.3595 247.438,226.413 308.107,388.746 26.9776,72.1867 40.5662,145.454 33.7819,212.382 -7.02284,69.293 -35.4591,131.538 -92.6457,178.876 -78.9201,65.3256 -212.528,100.977 -420.509,84.58 -125.367,-9.88465 -212.159,-45.678 -268.772,-97.7587 -57.7347,-53.1083 -83.6079,-122.249 -86.5938,-197.895 -2.88662,-73.1634 15.9402,-152.28 47.9752,-228.275 58.2414,-138.164 161.15,-267.412 256.312,-331.362 -33.7961,-32.0953 -60.9024,-74.4638 -77.2241,-114.064 -19.8,-48.0307 -23.8429,-94.5485 -6.21142,-119.736 1.09843,-1.57205 2.04803,-2.83347 2.84173,-3.77481l0.0472441 0.0401575c33.1689,-39.3083 71.6008,-21.0555 113.916,-0.956694 22.7563,10.8071 47.1189,22.3772 66.7016,19.9736 13.448,-2.20748 33.4925,-8.37638 55.0559,-15.013 44.4024,-13.6642 94.63,-29.1225 127.39,-22.0004 4.9252,1.07126 9.38977,3.2315 13.4008,6.40867 13.1941,10.448 17.2276,30.7984 13.4705,56.4331 -2.7378,18.6791 -9.51142,42.3083 -19.4799,67.4091z"/>
  <path class="fil4" d="M1183.22 599.463c-15.5114,39.0555 -39.1016,82.1847 -67.565,115.987 2.92205,1.67717 5.85119,3.42756 8.78741,5.21693l-235.329 0c-31.8425,-31.5555 -57.3863,-72.0426 -73.0264,-109.988 -19.8,-48.0307 -23.8429,-94.5485 -6.21142,-119.736 1.09843,-1.57205 2.04803,-2.83347 2.84173,-3.77481l0.0472441 0.0401575c33.1689,-39.3083 71.6008,-21.0555 113.916,-0.956694 22.7563,10.8071 47.1189,22.3772 66.7016,19.9736 13.448,-2.20748 33.4925,-8.37638 55.0559,-15.013 44.4024,-13.6642 94.63,-29.1225 127.39,-22.0004 4.9252,1.07126 9.38977,3.2315 13.4008,6.40867 13.1941,10.448 17.2276,30.7984 13.4705,56.4331 -2.7378,18.6791 -9.51142,42.3083 -19.4799,67.4091z"/>
  <path class="fil5" d="M1091.73 1272.52c-0.132284,0.243307 -0.265748,0.462992 -0.35315,0.629528 0.0767717,-0.144095 0.198425,-0.36378 0.35315,-0.629528zm51.4323 -8.73898c-2.46969,22.7386 -14.5288,43.3087 -32.5406,57.2741 -19.024,14.7508 -42.8894,21.6083 -66.5989,23.5358l0 25.1315c0,6.7252 -2.94449,13.2307 -7.97363,17.6835 -6.92127,6.11811 -17.0941,7.62638 -25.4847,3.75827 -8.29961,-3.8126 -13.7457,-12.3236 -13.7457,-21.4417l0 -27.4677c-4.06654,-0.77126 -8.10237,-1.69606 -12.0921,-2.78858 -22.1575,-6.09686 -42.7158,-17.9563 -57.73,-35.5181 -7.4752,-8.75316 -13.5815,-18.6827 -17.791,-29.4095 -1.10197,-2.79921 -2.08347,-5.65512 -2.94331,-8.54174 -0.78189,-2.61378 -1.58622,-5.26063 -1.8626,-7.98071 -0.462992,-4.57796 0.43937,-9.22796 2.56654,-13.3051 4.37835,-8.36812 13.5945,-13.4162 23.0091,-12.5787 9.2693,0.826772 17.3811,7.25197 20.3043,16.0831 0.902363,2.72362 1.50945,5.51103 2.51339,8.2004 1.00158,2.66693 2.21575,5.27008 3.6378,7.73859 2.79921,4.87323 6.31536,9.37087 10.3595,13.2709 8.33623,8.0256 18.9603,13.2508 30.0284,16.3583l0 -93.378c-21.6496,-5.60906 -44.0055,-12.8398 -61.8863,-26.7402 -8.68583,-6.77008 -16.0583,-15.1583 -20.8878,-25.102 -5.09292,-10.4917 -7.20945,-22.1788 -7.28623,-33.7843 -0.0874016,-11.785 2.15079,-23.4827 7.06654,-34.2166 4.60866,-10.0524 11.2311,-19.0807 19.3677,-26.5654 17.3823,-15.9957 40.4658,-24.9225 63.626,-28.1988l0 -26.0918c0,-6.72284 2.94331,-13.2272 7.97953,-17.6799 6.91182,-6.11811 17.0764,-7.62756 25.4858,-3.75945 8.29134,3.8126 13.7386,12.313 13.7386,21.4394l0 25.95c3.08386,0.383859 6.15945,0.858662 9.22324,1.41142 22.7421,4.11142 44.987,13.5036 61.6205,29.9044 7.86969,7.75985 14.3185,17.0221 18.861,27.1063 1.2685,2.82166 2.37166,5.69764 3.32717,8.63032 0.895276,2.74488 1.79882,5.55473 2.22638,8.42363 0.686221,4.54961 -0.00826772,9.2693 -1.97244,13.4457 -4.00158,8.55591 -12.9638,13.9996 -22.4091,13.5933 -9.2693,-0.408662 -17.6705,-6.44646 -20.9894,-15.1146 -0.989765,-2.57953 -1.48701,-5.30197 -2.48858,-7.8815 -1.02638,-2.59961 -2.33977,-5.07993 -3.85985,-7.42678 -2.95394,-4.56733 -6.77953,-8.46615 -11.1449,-11.6965 -9.46772,-6.97914 -20.9315,-10.6169 -32.3941,-12.6543l0 89.354c13.6228,3.26221 27.2587,6.82441 40.3099,11.9717 19.7327,7.78229 38.4272,19.7079 49.1835,38.5134 -1.66181,-2.92087 -3.29292,-5.78504 0.0673229,0.101575 3.28583,5.77441 1.71851,3.03071 0.0661418,0.129921 8.56654,15.1028 11.3776,33.1583 9.51261,50.3126zm-50.739 7.49528c-0.109843,0.197244 -0.231496,0.4063 -0.351969,0.625985 0.142913,-0.250394 0.253937,-0.43937 0.351969,-0.625985zm-132.731 -176.284c-3.08622,4.50945 -5.02441,9.63426 -5.55591,15.0921 -0.538583,5.45315 -0.242126,11.5299 1.84016,16.6654 1.97599,4.90512 6.1063,8.5193 10.3843,11.4319 4.78465,3.26221 10.0665,5.80748 15.4347,7.95827 4.49764,1.82008 9.56812,3.54922 15.0236,5.2252l0 -77.6587c-13.7906,2.94213 -28.8685,9.22796 -37.1268,21.2858zm132.291 177.078c0.0318898,-0.0578741 0.0543308,-0.0992127 0.0885827,-0.167717 -0.034252,0.056693 -0.056693,0.109843 -0.0885827,0.167717zm-2.73189 -39.8847c-3.58583,-3.92126 -8.11536,-6.85276 -12.7996,-9.30237 -10.1965,-5.32323 -21.3532,-8.55355 -32.4284,-11.4638l0 85.8272c17.9776,-2.02914 38.6114,-8.55355 48.0485,-25.3441 4.50945,-8.01024 5.4,-17.8689 3.57284,-26.7851 -0.993308,-4.84016 -3.05433,-9.27166 -6.39331,-12.9319z"/>
 </g>
</svg>
